<?xml version="1.0" encoding="UTF-8"?>
<svg xmlns="http://www.w3.org/2000/svg" xmlns:xlink="http://www.w3.org/1999/xlink" width="83px" height="97px" viewBox="0 0 83 96" version="1.1">
<g id="surface1">
<path style=" stroke:none;fill-rule:evenodd;fill:rgb(34.509805%,67.058825%,15.294118%);fill-opacity:1;" d="M 24.382812 48.339844 C 37.847656 48.339844 48.765625 37.519531 48.765625 24.179688 C 48.765625 10.839844 37.847656 0 24.382812 0 C 10.921875 0 0 10.820312 0 24.160156 C 0 37.5 10.917969 48.339844 24.382812 48.339844 Z M 15.867188 33.71875 C 16.085938 32.921875 16.308594 32.140625 16.550781 31.339844 C 16.835938 30.421875 17.097656 30.320312 17.945312 30.761719 C 19.386719 31.480469 20.941406 31.941406 22.546875 32.121094 C 23.566406 32.257812 24.605469 32.121094 25.554688 31.71875 C 27.351562 30.941406 27.632812 28.878906 26.117188 27.640625 C 25.59375 27.230469 25.019531 26.894531 24.402344 26.640625 C 22.828125 25.960938 21.195312 25.441406 19.699219 24.558594 C 17.296875 23.140625 15.765625 21.160156 15.945312 18.261719 C 16.148438 14.980469 18.023438 12.917969 21.050781 11.839844 C 22.304688 11.378906 22.304688 11.398438 22.324219 10.101562 L 22.324219 8.78125 C 22.34375 7.800781 22.527344 7.640625 23.496094 7.601562 L 24.402344 7.601562 C 26.503906 7.601562 26.503906 7.601562 26.503906 9.679688 C 26.503906 11.140625 26.503906 11.160156 27.976562 11.378906 C 29.097656 11.558594 30.191406 11.882812 31.226562 12.339844 C 31.8125 12.601562 32.015625 13 31.851562 13.601562 C 31.589844 14.5 31.347656 15.398438 31.046875 16.28125 C 30.761719 17.121094 30.5 17.238281 29.691406 16.859375 C 28.085938 16.085938 26.308594 15.734375 24.523438 15.839844 C 24.050781 15.84375 23.585938 15.9375 23.152344 16.121094 C 21.597656 16.800781 21.335938 18.5 22.667969 19.558594 C 23.332031 20.101562 24.101562 20.480469 24.90625 20.800781 C 26.28125 21.359375 27.671875 21.917969 29.003906 22.640625 C 33.183594 24.941406 34.3125 30.140625 31.367188 33.679688 C 30.316406 34.945312 28.890625 35.847656 27.289062 36.261719 C 26.582031 36.460938 26.257812 36.820312 26.300781 37.539062 C 26.339844 38.261719 26.300781 38.960938 26.300781 39.679688 C 26.300781 40.320312 25.976562 40.660156 25.332031 40.679688 C 24.5625 40.699219 23.777344 40.699219 23.011719 40.679688 C 22.324219 40.660156 22 40.28125 22 39.621094 C 22 39.101562 22 38.578125 21.980469 38.058594 C 21.960938 36.917969 21.941406 36.859375 20.808594 36.679688 C 19.375 36.460938 17.984375 36.140625 16.671875 35.5 C 15.683594 35.039062 15.582031 34.78125 15.867188 33.71875 Z M 79.085938 50.359375 L 76.238281 50.359375 C 74.359375 44.660156 70.6875 39.601562 65.78125 35.679688 C 65.773438 35.492188 65.746094 35.304688 65.703125 35.121094 C 64.671875 31.539062 65.945312 28.28125 67.417969 25.941406 C 68.445312 24.300781 67.113281 22.199219 65.175781 22.441406 C 60.835938 22.980469 57.851562 24.558594 55.789062 26.339844 C 54.371094 27.570312 53.367188 29.203125 52.925781 31.019531 C 49.816406 43.78125 38.210938 53.28125 24.382812 53.28125 C 17.929688 53.289062 11.652344 51.179688 6.539062 47.28125 C 3.824219 53.082031 3.179688 59.625 4.703125 65.839844 C 4.703125 65.875 4.710938 65.90625 4.722656 65.941406 C 5.273438 68.152344 6.085938 70.296875 7.144531 72.320312 C 8.539062 75.300781 10.554688 78.78125 13.34375 81.601562 C 17.359375 85.699219 18.046875 90.78125 18.144531 92.980469 L 18.144531 94.058594 C 18.226562 95.148438 19.140625 95.996094 20.246094 96 L 33.003906 96 C 33.558594 96 34.09375 95.78125 34.488281 95.390625 C 34.882812 95 35.101562 94.472656 35.101562 93.921875 L 35.101562 90.800781 C 36.980469 91.046875 38.875 91.175781 40.773438 91.179688 C 42.261719 91.179688 43.753906 91.101562 45.234375 90.941406 L 45.234375 93.921875 C 45.234375 94.472656 45.453125 95 45.847656 95.390625 C 46.242188 95.78125 46.777344 96 47.332031 96 L 60.128906 96 C 60.6875 96 61.222656 95.78125 61.617188 95.390625 C 62.007812 95 62.230469 94.472656 62.230469 93.921875 L 62.230469 90.800781 C 62.25 89.761719 62.613281 85.621094 66.570312 82.078125 L 66.992188 81.71875 C 67.035156 81.679688 67.074219 81.660156 67.113281 81.621094 C 71.515625 77.738281 74.765625 72.898438 76.441406 67.5 L 79.125 67.5 C 81.265625 67.5 83 65.78125 83 63.660156 L 83 54.199219 C 82.96875 52.078125 81.226562 50.371094 79.085938 50.359375 Z M 63.117188 51.039062 C 61.367188 51.039062 59.945312 49.636719 59.945312 47.902344 C 59.945312 46.167969 61.363281 44.761719 63.117188 44.761719 C 64.867188 44.757812 66.285156 46.164062 66.285156 47.898438 C 66.289062 48.734375 65.957031 49.53125 65.359375 50.121094 C 64.765625 50.710938 63.960938 51.042969 63.117188 51.039062 Z M 63.117188 51.039062 "/>
</g>
</svg>
